<svg xmlns="http://www.w3.org/2000/svg" xmlns:xlink="http://www.w3.org/1999/xlink" width="40" zoomAndPan="magnify" viewBox="0 0 30 30.000001" height="40" preserveAspectRatio="xMidYMid meet" version="1.0"><defs><g/><clipPath id="48c6ce9b95"><path d="M 0.484375 0 L 29.515625 0 L 29.515625 29.03125 L 0.484375 29.03125 Z M 0.484375 0 " clip-rule="nonzero"/></clipPath></defs><g clip-path="url(#48c6ce9b95)"><path fill="#ffffff" d="M 26.808594 20.378906 C 26.746094 21.792969 26.507812 22.5625 26.3125 23.070312 C 26.046875 23.75 25.734375 24.234375 25.222656 24.742188 C 24.71875 25.25 24.234375 25.5625 23.554688 25.824219 C 23.046875 26.023438 22.273438 26.261719 20.859375 26.328125 C 19.328125 26.394531 18.875 26.410156 14.996094 26.410156 C 11.121094 26.410156 10.664062 26.394531 9.132812 26.328125 C 7.71875 26.261719 6.949219 26.023438 6.4375 25.824219 C 5.757812 25.5625 5.277344 25.25 4.769531 24.742188 C 4.257812 24.234375 3.941406 23.75 3.683594 23.070312 C 3.484375 22.5625 3.246094 21.792969 3.183594 20.378906 C 3.109375 18.847656 3.097656 18.386719 3.097656 14.515625 C 3.097656 10.636719 3.109375 10.179688 3.183594 8.648438 C 3.246094 7.234375 3.484375 6.464844 3.683594 5.949219 C 3.941406 5.273438 4.257812 4.792969 4.769531 4.285156 C 5.277344 3.777344 5.757812 3.460938 6.4375 3.199219 C 6.949219 3 7.71875 2.765625 9.132812 2.699219 C 10.664062 2.628906 11.121094 2.613281 14.996094 2.613281 C 18.875 2.613281 19.328125 2.628906 20.859375 2.699219 C 22.273438 2.765625 23.046875 3 23.554688 3.199219 C 24.234375 3.460938 24.71875 3.777344 25.222656 4.285156 C 25.734375 4.792969 26.046875 5.273438 26.3125 5.949219 C 26.507812 6.464844 26.746094 7.234375 26.808594 8.648438 C 26.878906 10.179688 26.898438 10.636719 26.898438 14.515625 C 26.898438 18.386719 26.878906 18.847656 26.808594 20.378906 Z M 29.421875 8.53125 C 29.351562 6.984375 29.105469 5.925781 28.746094 5.007812 C 28.375 4.050781 27.882812 3.242188 27.074219 2.433594 C 26.269531 1.628906 25.457031 1.132812 24.503906 0.761719 C 23.582031 0.402344 22.527344 0.15625 20.980469 0.0898438 C 19.433594 0.0117188 18.9375 0 14.996094 0 C 11.054688 0 10.558594 0.0117188 9.011719 0.0898438 C 7.46875 0.15625 6.414062 0.402344 5.488281 0.761719 C 4.535156 1.132812 3.726562 1.628906 2.921875 2.433594 C 2.113281 3.242188 1.617188 4.050781 1.246094 5.007812 C 0.886719 5.925781 0.644531 6.984375 0.570312 8.53125 C 0.5 10.078125 0.484375 10.570312 0.484375 14.515625 C 0.484375 18.453125 0.5 18.949219 0.570312 20.496094 C 0.644531 22.039062 0.886719 23.09375 1.246094 24.019531 C 1.617188 24.972656 2.113281 25.785156 2.921875 26.589844 C 3.726562 27.394531 4.535156 27.890625 5.488281 28.265625 C 6.414062 28.625 7.46875 28.867188 9.011719 28.9375 C 10.558594 29.007812 11.054688 29.027344 14.996094 29.027344 C 18.9375 29.027344 19.433594 29.007812 20.980469 28.9375 C 22.527344 28.867188 23.582031 28.625 24.503906 28.265625 C 25.457031 27.890625 26.269531 27.394531 27.074219 26.589844 C 27.882812 25.785156 28.375 24.972656 28.746094 24.019531 C 29.105469 23.09375 29.351562 22.039062 29.421875 20.496094 C 29.492188 18.949219 29.511719 18.453125 29.511719 14.515625 C 29.511719 10.570312 29.492188 10.078125 29.421875 8.53125 Z M 29.421875 8.53125 " fill-opacity="1" fill-rule="nonzero"/></g><path fill="#ffffff" d="M 14.996094 19.347656 C 12.324219 19.347656 10.15625 17.183594 10.15625 14.515625 C 10.15625 11.839844 12.324219 9.675781 14.996094 9.675781 C 17.667969 9.675781 19.835938 11.839844 19.835938 14.515625 C 19.835938 17.183594 17.667969 19.347656 14.996094 19.347656 Z M 14.996094 7.058594 C 10.878906 7.058594 7.546875 10.398438 7.546875 14.515625 C 7.546875 18.628906 10.878906 21.964844 14.996094 21.964844 C 19.113281 21.964844 22.449219 18.628906 22.449219 14.515625 C 22.449219 10.398438 19.113281 7.058594 14.996094 7.058594 Z M 14.996094 7.058594 " fill-opacity="1" fill-rule="nonzero"/><g fill="#000000" fill-opacity="1"><g transform="translate(14.739163, 14.880065)"><g><path d="M 0.140625 -0.09375 C 0.140625 -0.132812 0.148438 -0.164062 0.171875 -0.1875 C 0.191406 -0.21875 0.21875 -0.234375 0.25 -0.234375 C 0.289062 -0.234375 0.320312 -0.21875 0.34375 -0.1875 C 0.363281 -0.164062 0.375 -0.132812 0.375 -0.09375 C 0.375 -0.0507812 0.363281 -0.0195312 0.34375 0 C 0.320312 0.0195312 0.289062 0.03125 0.25 0.03125 C 0.21875 0.03125 0.191406 0.0195312 0.171875 0 C 0.148438 -0.0195312 0.140625 -0.0507812 0.140625 -0.09375 Z M 0.140625 -0.09375 "/></g></g></g><g fill="#000000" fill-opacity="1"><g transform="translate(14.739163, 14.880065)"><g><path d="M 0.140625 -0.09375 C 0.140625 -0.132812 0.148438 -0.164062 0.171875 -0.1875 C 0.191406 -0.21875 0.21875 -0.234375 0.25 -0.234375 C 0.289062 -0.234375 0.320312 -0.21875 0.34375 -0.1875 C 0.363281 -0.164062 0.375 -0.132812 0.375 -0.09375 C 0.375 -0.0507812 0.363281 -0.0195312 0.34375 0 C 0.320312 0.0195312 0.289062 0.03125 0.25 0.03125 C 0.21875 0.03125 0.191406 0.0195312 0.171875 0 C 0.148438 -0.0195312 0.140625 -0.0507812 0.140625 -0.09375 Z M 0.140625 -0.09375 "/></g></g></g></svg>