<svg xmlns="http://www.w3.org/2000/svg" xmlns:xlink="http://www.w3.org/1999/xlink" width="40" zoomAndPan="magnify" viewBox="0 0 30 30.000001" height="40" preserveAspectRatio="xMidYMid meet" version="1.0"><defs><g/><clipPath id="fa41c49db6"><path d="M 0.484375 0 L 29.515625 0 L 29.515625 29.03125 L 0.484375 29.03125 Z M 0.484375 0 " clip-rule="nonzero"/></clipPath></defs><g clip-path="url(#fa41c49db6)"><path fill="#ffffff" d="M 24.964844 29.03125 L 5.035156 29.03125 C 4.734375 29.03125 4.4375 29.003906 4.144531 28.945312 C 3.855469 28.886719 3.570312 28.796875 3.292969 28.683594 C 3.019531 28.570312 2.753906 28.429688 2.507812 28.261719 C 2.257812 28.097656 2.03125 27.910156 1.820312 27.699219 C 1.605469 27.488281 1.417969 27.257812 1.253906 27.007812 C 1.085938 26.761719 0.945312 26.5 0.832031 26.222656 C 0.71875 25.945312 0.632812 25.664062 0.574219 25.371094 C 0.515625 25.078125 0.484375 24.78125 0.484375 24.484375 L 0.484375 4.550781 C 0.484375 4.25 0.515625 3.957031 0.574219 3.664062 C 0.632812 3.371094 0.71875 3.085938 0.832031 2.808594 C 0.945312 2.535156 1.085938 2.273438 1.253906 2.023438 C 1.417969 1.777344 1.605469 1.546875 1.820312 1.335938 C 2.03125 1.125 2.257812 0.933594 2.507812 0.769531 C 2.753906 0.601562 3.019531 0.460938 3.292969 0.347656 C 3.570312 0.234375 3.855469 0.148438 4.144531 0.0898438 C 4.4375 0.03125 4.734375 0 5.035156 0 L 24.964844 0 C 25.265625 0 25.5625 0.03125 25.855469 0.0898438 C 26.144531 0.148438 26.429688 0.234375 26.707031 0.347656 C 26.980469 0.460938 27.246094 0.601562 27.492188 0.769531 C 27.742188 0.933594 27.96875 1.125 28.179688 1.335938 C 28.394531 1.546875 28.582031 1.777344 28.746094 2.023438 C 28.914062 2.273438 29.054688 2.535156 29.167969 2.808594 C 29.28125 3.085938 29.367188 3.371094 29.425781 3.664062 C 29.484375 3.957031 29.515625 4.25 29.515625 4.550781 L 29.515625 24.484375 C 29.515625 24.78125 29.484375 25.078125 29.425781 25.371094 C 29.367188 25.664062 29.28125 25.945312 29.167969 26.222656 C 29.054688 26.5 28.914062 26.761719 28.746094 27.007812 C 28.582031 27.257812 28.394531 27.488281 28.179688 27.699219 C 27.96875 27.910156 27.742188 28.097656 27.492188 28.261719 C 27.246094 28.429688 26.980469 28.570312 26.707031 28.683594 C 26.429688 28.796875 26.144531 28.886719 25.855469 28.945312 C 25.5625 29.003906 25.265625 29.03125 24.964844 29.03125 Z M 5.035156 0.632812 C 4.777344 0.632812 4.523438 0.660156 4.269531 0.710938 C 4.019531 0.761719 3.773438 0.835938 3.535156 0.933594 C 3.296875 1.03125 3.074219 1.152344 2.859375 1.296875 C 2.644531 1.4375 2.449219 1.601562 2.265625 1.78125 C 2.085938 1.964844 1.921875 2.160156 1.777344 2.375 C 1.636719 2.589844 1.515625 2.816406 1.417969 3.050781 C 1.320312 3.289062 1.246094 3.535156 1.195312 3.785156 C 1.144531 4.039062 1.117188 4.292969 1.117188 4.550781 L 1.117188 24.484375 C 1.117188 24.738281 1.144531 24.996094 1.195312 25.246094 C 1.246094 25.5 1.320312 25.742188 1.417969 25.980469 C 1.515625 26.21875 1.636719 26.441406 1.777344 26.65625 C 1.921875 26.871094 2.085938 27.066406 2.265625 27.25 C 2.449219 27.433594 2.644531 27.59375 2.859375 27.738281 C 3.074219 27.878906 3.296875 28 3.535156 28.097656 C 3.773438 28.199219 4.019531 28.273438 4.269531 28.320312 C 4.523438 28.371094 4.777344 28.398438 5.035156 28.398438 L 24.964844 28.398438 C 25.222656 28.398438 25.476562 28.371094 25.730469 28.320312 C 25.980469 28.273438 26.226562 28.199219 26.464844 28.097656 C 26.703125 28 26.925781 27.878906 27.140625 27.738281 C 27.355469 27.59375 27.550781 27.433594 27.734375 27.25 C 27.914062 27.066406 28.078125 26.871094 28.222656 26.65625 C 28.363281 26.441406 28.484375 26.21875 28.582031 25.980469 C 28.679688 25.742188 28.753906 25.5 28.804688 25.246094 C 28.855469 24.996094 28.882812 24.738281 28.882812 24.484375 L 28.882812 4.550781 C 28.882812 4.292969 28.855469 4.039062 28.804688 3.785156 C 28.753906 3.535156 28.679688 3.289062 28.582031 3.050781 C 28.484375 2.816406 28.363281 2.589844 28.222656 2.375 C 28.078125 2.160156 27.914062 1.964844 27.734375 1.78125 C 27.550781 1.601562 27.355469 1.4375 27.140625 1.296875 C 26.925781 1.152344 26.703125 1.03125 26.464844 0.933594 C 26.226562 0.835938 25.980469 0.761719 25.730469 0.710938 C 25.476562 0.660156 25.222656 0.632812 24.964844 0.632812 Z M 5.035156 0.632812 " fill-opacity="1" fill-rule="nonzero"/></g><path fill="#ffffff" d="M 24.964844 26.804688 L 5.035156 26.804688 C 4.726562 26.804688 4.429688 26.746094 4.144531 26.628906 C 3.859375 26.511719 3.609375 26.34375 3.390625 26.125 C 3.175781 25.90625 3.007812 25.65625 2.886719 25.371094 C 2.769531 25.085938 2.710938 24.789062 2.710938 24.484375 L 2.710938 4.550781 C 2.710938 4.242188 2.769531 3.945312 2.886719 3.660156 C 3.007812 3.375 3.175781 3.125 3.390625 2.90625 C 3.609375 2.691406 3.859375 2.523438 4.144531 2.402344 C 4.429688 2.285156 4.726562 2.226562 5.035156 2.226562 L 24.964844 2.226562 C 25.273438 2.226562 25.570312 2.285156 25.855469 2.402344 C 26.140625 2.523438 26.390625 2.691406 26.609375 2.90625 C 26.824219 3.125 26.992188 3.375 27.113281 3.660156 C 27.230469 3.945312 27.289062 4.242188 27.289062 4.550781 L 27.289062 24.484375 C 27.289062 24.789062 27.230469 25.085938 27.113281 25.371094 C 26.992188 25.65625 26.824219 25.90625 26.609375 26.125 C 26.390625 26.34375 26.140625 26.511719 25.855469 26.628906 C 25.570312 26.746094 25.273438 26.804688 24.964844 26.804688 Z M 5.035156 2.859375 C 4.808594 2.859375 4.59375 2.902344 4.386719 2.988281 C 4.179688 3.074219 4 3.199219 3.839844 3.355469 C 3.679688 3.515625 3.558594 3.695312 3.472656 3.902344 C 3.386719 4.109375 3.34375 4.324219 3.34375 4.550781 L 3.34375 24.484375 C 3.34375 24.707031 3.386719 24.921875 3.472656 25.128906 C 3.558594 25.335938 3.679688 25.519531 3.839844 25.675781 C 4 25.835938 4.179688 25.957031 4.386719 26.042969 C 4.59375 26.128906 4.808594 26.171875 5.035156 26.171875 L 24.964844 26.171875 C 25.191406 26.171875 25.40625 26.128906 25.613281 26.042969 C 25.820312 25.957031 26 25.835938 26.160156 25.675781 C 26.320312 25.519531 26.441406 25.335938 26.527344 25.128906 C 26.613281 24.921875 26.65625 24.707031 26.65625 24.484375 L 26.65625 4.550781 C 26.65625 4.324219 26.613281 4.109375 26.527344 3.902344 C 26.441406 3.695312 26.320312 3.515625 26.160156 3.355469 C 26 3.199219 25.820312 3.074219 25.613281 2.988281 C 25.40625 2.902344 25.191406 2.859375 24.964844 2.859375 Z M 5.035156 2.859375 " fill-opacity="1" fill-rule="nonzero"/><path fill="#ffffff" d="M 7.976562 24.652344 L 7.132812 24.652344 C 6.960938 24.652344 6.796875 24.617188 6.636719 24.554688 C 6.480469 24.488281 6.339844 24.394531 6.21875 24.273438 C 6.097656 24.152344 6.003906 24.011719 5.941406 23.855469 C 5.875 23.699219 5.839844 23.53125 5.839844 23.363281 L 5.839844 11.332031 C 5.839844 11.164062 5.875 11 5.941406 10.839844 C 6.003906 10.683594 6.097656 10.542969 6.21875 10.421875 C 6.339844 10.300781 6.480469 10.207031 6.636719 10.140625 C 6.796875 10.078125 6.960938 10.042969 7.132812 10.042969 L 7.976562 10.042969 C 8.144531 10.042969 8.308594 10.078125 8.46875 10.140625 C 8.625 10.207031 8.765625 10.300781 8.886719 10.421875 C 9.007812 10.542969 9.101562 10.683594 9.164062 10.839844 C 9.230469 11 9.265625 11.164062 9.265625 11.332031 L 9.265625 23.363281 C 9.265625 23.53125 9.230469 23.695312 9.164062 23.855469 C 9.101562 24.011719 9.007812 24.152344 8.886719 24.273438 C 8.765625 24.394531 8.625 24.488281 8.46875 24.554688 C 8.308594 24.617188 8.144531 24.652344 7.976562 24.652344 Z M 7.132812 10.679688 C 6.949219 10.679688 6.796875 10.742188 6.667969 10.871094 C 6.539062 11 6.476562 11.152344 6.476562 11.332031 L 6.476562 23.363281 C 6.476562 23.542969 6.539062 23.699219 6.667969 23.824219 C 6.796875 23.953125 6.949219 24.015625 7.132812 24.019531 L 7.976562 24.019531 C 8.15625 24.015625 8.308594 23.953125 8.4375 23.824219 C 8.566406 23.699219 8.628906 23.542969 8.628906 23.363281 L 8.628906 11.332031 C 8.628906 11.152344 8.566406 11 8.4375 10.871094 C 8.308594 10.742188 8.15625 10.679688 7.976562 10.679688 Z M 7.132812 10.679688 " fill-opacity="1" fill-rule="nonzero"/><path fill="#ffffff" d="M 23.28125 24.652344 L 22.4375 24.652344 C 22.265625 24.652344 22.101562 24.617188 21.945312 24.554688 C 21.785156 24.488281 21.648438 24.394531 21.527344 24.273438 C 21.40625 24.152344 21.3125 24.011719 21.246094 23.855469 C 21.179688 23.699219 21.148438 23.53125 21.148438 23.363281 L 21.148438 18.59375 C 21.148438 18.507812 21.148438 18.417969 21.140625 18.332031 C 21.007812 16.378906 19.511719 15.554688 18.09375 15.605469 C 16.6875 15.652344 15.179688 16.609375 15.179688 18.59375 L 15.179688 23.359375 C 15.179688 23.53125 15.144531 23.695312 15.078125 23.851562 C 15.015625 24.011719 14.921875 24.148438 14.800781 24.269531 C 14.679688 24.390625 14.539062 24.484375 14.382812 24.550781 C 14.222656 24.617188 14.058594 24.648438 13.890625 24.648438 L 13.046875 24.648438 C 12.875 24.648438 12.710938 24.617188 12.550781 24.550781 C 12.394531 24.484375 12.253906 24.390625 12.132812 24.269531 C 12.011719 24.152344 11.921875 24.011719 11.855469 23.851562 C 11.789062 23.695312 11.757812 23.53125 11.757812 23.359375 L 11.757812 11.332031 C 11.757812 11.164062 11.789062 11 11.855469 10.839844 C 11.921875 10.683594 12.011719 10.542969 12.132812 10.421875 C 12.253906 10.300781 12.394531 10.207031 12.550781 10.140625 C 12.710938 10.078125 12.875 10.042969 13.046875 10.042969 L 13.890625 10.042969 C 14.058594 10.042969 14.222656 10.078125 14.382812 10.140625 C 14.539062 10.207031 14.679688 10.300781 14.800781 10.421875 C 14.921875 10.542969 15.015625 10.683594 15.078125 10.839844 C 15.144531 11 15.179688 11.164062 15.179688 11.332031 L 15.179688 11.851562 C 15.882812 11.554688 16.617188 11.402344 17.378906 11.402344 C 17.851562 11.402344 18.320312 11.449219 18.78125 11.542969 C 19.246094 11.636719 19.695312 11.773438 20.132812 11.953125 C 20.566406 12.132812 20.980469 12.355469 21.375 12.617188 C 21.765625 12.878906 22.128906 13.179688 22.464844 13.511719 C 22.796875 13.847656 23.09375 14.207031 23.355469 14.601562 C 23.621094 14.992188 23.839844 15.40625 24.023438 15.84375 C 24.203125 16.28125 24.339844 16.730469 24.433594 17.191406 C 24.523438 17.65625 24.570312 18.121094 24.570312 18.59375 L 24.570312 23.363281 C 24.570312 23.53125 24.539062 23.699219 24.472656 23.855469 C 24.40625 24.011719 24.3125 24.152344 24.195312 24.273438 C 24.074219 24.394531 23.933594 24.488281 23.773438 24.554688 C 23.617188 24.617188 23.453125 24.652344 23.28125 24.652344 Z M 18.207031 14.972656 C 19.839844 14.972656 21.613281 15.992188 21.773438 18.289062 C 21.777344 18.390625 21.78125 18.492188 21.78125 18.59375 L 21.78125 23.363281 C 21.78125 23.542969 21.847656 23.699219 21.976562 23.824219 C 22.101562 23.953125 22.257812 24.015625 22.4375 24.019531 L 23.28125 24.019531 C 23.460938 24.015625 23.617188 23.953125 23.746094 23.824219 C 23.875 23.699219 23.9375 23.542969 23.9375 23.363281 L 23.9375 18.59375 C 23.9375 18.164062 23.894531 17.738281 23.808594 17.316406 C 23.726562 16.894531 23.601562 16.484375 23.4375 16.085938 C 23.273438 15.6875 23.070312 15.3125 22.832031 14.953125 C 22.589844 14.59375 22.320312 14.265625 22.015625 13.960938 C 21.710938 13.65625 21.378906 13.382812 21.023438 13.144531 C 20.664062 12.90625 20.285156 12.703125 19.890625 12.539062 C 19.492188 12.375 19.082031 12.25 18.660156 12.164062 C 18.238281 12.082031 17.8125 12.039062 17.378906 12.039062 C 16.539062 12.039062 15.75 12.238281 15.011719 12.636719 C 14.964844 12.664062 14.910156 12.675781 14.855469 12.675781 C 14.800781 12.671875 14.746094 12.660156 14.699219 12.628906 C 14.652344 12.601562 14.613281 12.5625 14.585938 12.515625 C 14.558594 12.464844 14.542969 12.414062 14.542969 12.359375 L 14.542969 11.332031 C 14.542969 11.152344 14.480469 11 14.351562 10.871094 C 14.222656 10.742188 14.070312 10.679688 13.890625 10.679688 L 13.046875 10.679688 C 12.863281 10.679688 12.710938 10.742188 12.582031 10.871094 C 12.453125 11 12.390625 11.152344 12.390625 11.332031 L 12.390625 23.363281 C 12.390625 23.542969 12.453125 23.699219 12.582031 23.824219 C 12.710938 23.953125 12.863281 24.015625 13.046875 24.019531 L 13.890625 24.019531 C 14.070312 24.015625 14.222656 23.953125 14.351562 23.824219 C 14.480469 23.699219 14.542969 23.542969 14.542969 23.363281 L 14.542969 18.59375 C 14.542969 17.519531 14.925781 16.597656 15.648438 15.933594 C 16.339844 15.316406 17.144531 14.996094 18.070312 14.972656 C 18.117188 14.972656 18.160156 14.972656 18.207031 14.972656 Z M 18.207031 14.972656 " fill-opacity="1" fill-rule="nonzero"/><path fill="#ffffff" d="M 7.554688 8.628906 C 7.269531 8.628906 7 8.574219 6.738281 8.46875 C 6.480469 8.359375 6.25 8.207031 6.050781 8.007812 C 5.851562 7.808594 5.699219 7.578125 5.589844 7.316406 C 5.480469 7.058594 5.429688 6.785156 5.429688 6.503906 C 5.429688 6.222656 5.480469 5.953125 5.589844 5.691406 C 5.699219 5.433594 5.851562 5.203125 6.050781 5.003906 C 6.25 4.804688 6.480469 4.648438 6.738281 4.542969 C 7 4.433594 7.269531 4.378906 7.554688 4.378906 C 7.835938 4.378906 8.105469 4.433594 8.367188 4.542969 C 8.625 4.648438 8.855469 4.804688 9.054688 5.003906 C 9.253906 5.203125 9.40625 5.433594 9.515625 5.691406 C 9.625 5.953125 9.675781 6.222656 9.675781 6.503906 C 9.675781 6.785156 9.625 7.058594 9.515625 7.316406 C 9.40625 7.578125 9.253906 7.808594 9.054688 8.007812 C 8.855469 8.207031 8.625 8.359375 8.367188 8.46875 C 8.105469 8.574219 7.835938 8.628906 7.554688 8.628906 Z M 7.554688 5.015625 C 7.355469 5.015625 7.164062 5.050781 6.984375 5.128906 C 6.800781 5.203125 6.640625 5.3125 6.5 5.453125 C 6.359375 5.589844 6.25 5.753906 6.175781 5.933594 C 6.101562 6.117188 6.0625 6.308594 6.0625 6.503906 C 6.0625 6.703125 6.101562 6.894531 6.175781 7.074219 C 6.25 7.257812 6.359375 7.417969 6.5 7.558594 C 6.640625 7.699219 6.800781 7.808594 6.984375 7.882812 C 7.164062 7.957031 7.355469 7.996094 7.554688 7.996094 C 7.75 7.996094 7.941406 7.957031 8.125 7.882812 C 8.304688 7.808594 8.46875 7.699219 8.605469 7.558594 C 8.746094 7.417969 8.855469 7.257812 8.929688 7.074219 C 9.003906 6.894531 9.042969 6.703125 9.042969 6.503906 C 9.042969 6.308594 9.003906 6.117188 8.929688 5.933594 C 8.855469 5.753906 8.746094 5.589844 8.605469 5.453125 C 8.46875 5.3125 8.304688 5.203125 8.125 5.128906 C 7.941406 5.050781 7.75 5.015625 7.554688 5.015625 Z M 7.554688 5.015625 " fill-opacity="1" fill-rule="nonzero"/><g fill="#000000" fill-opacity="1"><g transform="translate(14.739163, 14.880065)"><g><path d="M 0.140625 -0.09375 C 0.140625 -0.132812 0.148438 -0.164062 0.171875 -0.1875 C 0.191406 -0.21875 0.21875 -0.234375 0.25 -0.234375 C 0.289062 -0.234375 0.320312 -0.21875 0.34375 -0.1875 C 0.363281 -0.164062 0.375 -0.132812 0.375 -0.09375 C 0.375 -0.0507812 0.363281 -0.0195312 0.34375 0 C 0.320312 0.0195312 0.289062 0.03125 0.25 0.03125 C 0.21875 0.03125 0.191406 0.0195312 0.171875 0 C 0.148438 -0.0195312 0.140625 -0.0507812 0.140625 -0.09375 Z M 0.140625 -0.09375 "/></g></g></g><g fill="#000000" fill-opacity="1"><g transform="translate(14.739163, 14.880065)"><g><path d="M 0.140625 -0.09375 C 0.140625 -0.132812 0.148438 -0.164062 0.171875 -0.1875 C 0.191406 -0.21875 0.21875 -0.234375 0.25 -0.234375 C 0.289062 -0.234375 0.320312 -0.21875 0.34375 -0.1875 C 0.363281 -0.164062 0.375 -0.132812 0.375 -0.09375 C 0.375 -0.0507812 0.363281 -0.0195312 0.34375 0 C 0.320312 0.0195312 0.289062 0.03125 0.25 0.03125 C 0.21875 0.03125 0.191406 0.0195312 0.171875 0 C 0.148438 -0.0195312 0.140625 -0.0507812 0.140625 -0.09375 Z M 0.140625 -0.09375 "/></g></g></g></svg>